<?xml version="1.0" encoding="utf-8"?>
<!-- Generator: Adobe Illustrator 23.0.1, SVG Export Plug-In . SVG Version: 6.00 Build 0)  -->
<svg version="1.1" id="Layer_1" xmlns="http://www.w3.org/2000/svg" xmlns:xlink="http://www.w3.org/1999/xlink" x="0px" y="0px"
	 viewBox="0 0 24 24" style="enable-background:new 0 0 24 24;" xml:space="preserve">
<path d="M12,2C6.5,2,2,6.5,2,12s4.5,10,10,10s10-4.5,10-10S17.5,2,12,2z M16.7,11.7C16.5,11.9,16.3,12,16,12h-2v5c0,0.6-0.4,1-1,1
	h-2c-0.6,0-1-0.4-1-1v-5H8c-0.6,0-1-0.5-1-1c0-0.3,0.1-0.5,0.3-0.7l4-4c0.4-0.4,1-0.4,1.4,0l4,4C17.1,10.7,17.1,11.3,16.7,11.7z"/>
</svg>
