<?xml version="1.0" encoding="utf-8"?>
<!-- Generator: Adobe Illustrator 23.0.1, SVG Export Plug-In . SVG Version: 6.00 Build 0)  -->
<svg version="1.1" id="Layer_1" xmlns="http://www.w3.org/2000/svg" xmlns:xlink="http://www.w3.org/1999/xlink" x="0px" y="0px"
	 viewBox="0 0 24 24" style="enable-background:new 0 0 24 24;" xml:space="preserve">
<path d="M5,3h10c1.1,0,2,0.9,2,2v10c0,1.1-0.9,2-2,2H5c-1.1,0-2-0.9-2-2V5C3,3.9,3.9,3,5,3z M9,7h10c1.1,0,2,0.9,2,2v10
	c0,1.1-0.9,2-2,2H9c-1.1,0-2-0.9-2-2V9C7,7.9,7.9,7,9,7z"/>
</svg>
