<?xml version="1.0" encoding="utf-8"?>
<!-- Generator: Adobe Illustrator 23.0.1, SVG Export Plug-In . SVG Version: 6.00 Build 0)  -->
<svg version="1.1" id="Layer_1" xmlns="http://www.w3.org/2000/svg" xmlns:xlink="http://www.w3.org/1999/xlink" x="0px" y="0px"
	 viewBox="0 0 24 24" style="enable-background:new 0 0 24 24;" xml:space="preserve">
<path d="M12,2C6.5,2,2,6.5,2,12s4.5,10,10,10s10-4.5,10-10S17.5,2,12,2z M16.2,14.8c0.4,0.4,0.3,1.1-0.1,1.4c-0.4,0.3-0.9,0.3-1.3,0
	L12,13.4l-2.8,2.8c-0.4,0.4-1,0.5-1.4,0.1c-0.4-0.4-0.5-1-0.1-1.4c0,0,0.1-0.1,0.1-0.1l2.8-2.8L7.8,9.2C7.4,8.8,7.4,8.1,7.9,7.8
	c0.4-0.3,0.9-0.3,1.3,0l2.8,2.8l2.8-2.8c0.4-0.4,1.1-0.3,1.4,0.1c0.3,0.4,0.3,0.9,0,1.3L13.4,12L16.2,14.8z"/>
</svg>
