<?xml version="1.0" encoding="utf-8"?>
<!-- Generator: Adobe Illustrator 23.0.1, SVG Export Plug-In . SVG Version: 6.00 Build 0)  -->
<svg version="1.1" id="Layer_1" xmlns="http://www.w3.org/2000/svg" xmlns:xlink="http://www.w3.org/1999/xlink" x="0px" y="0px"
	 viewBox="0 0 24 24" style="enable-background:new 0 0 24 24;" xml:space="preserve">
<g>
	<path d="M6.4,20.3c-0.1-0.1-0.3-0.2-0.4-0.3C6.2,20.1,6.3,20.2,6.4,20.3z"/>
	<path d="M4.5,18.6c-0.1-0.1-0.1-0.2-0.2-0.2C4.3,18.4,4.4,18.5,4.5,18.6z"/>
	<path d="M12,22C12,22,12,22,12,22C12,22,12,22,12,22C12,22,12,22,12,22z"/>
	<path d="M5.6,19.7c-0.1-0.1-0.1-0.1-0.2-0.2C5.5,19.6,5.6,19.7,5.6,19.7z"/>
	<path d="M11,21.9c-0.1,0-0.1,0-0.2,0C10.9,21.9,10.9,21.9,11,21.9z"/>
	<path d="M7.3,20.8c-0.2-0.1-0.3-0.2-0.5-0.3C7,20.6,7.1,20.7,7.3,20.8z"/>
	<path d="M9.1,21.6c-0.1,0-0.2-0.1-0.4-0.1C8.9,21.5,9,21.5,9.1,21.6z"/>
	<path d="M14.2,21.7c-0.1,0-0.1,0-0.2,0.1C14.1,21.8,14.1,21.8,14.2,21.7z"/>
	<path d="M8.2,21.2C8,21.2,7.9,21.1,7.8,21C7.9,21.1,8,21.2,8.2,21.2z"/>
	<path d="M20,18c0.1-0.1,0.2-0.3,0.3-0.4C20.2,17.7,20.1,17.9,20,18z"/>
	<path d="M16.9,20.7c0,0-0.1,0.1-0.1,0.1C16.8,20.8,16.8,20.7,16.9,20.7z"/>
	<path d="M16.1,21.1c-0.1,0-0.2,0.1-0.3,0.1C16,21.2,16,21.1,16.1,21.1z"/>
	<path d="M10,21.8c-0.1,0-0.2,0-0.3-0.1C9.8,21.8,9.9,21.8,10,21.8z"/>
	<path d="M8,15h8c1.8,0,3.4,1,4.3,2.5c1-1.6,1.7-3.5,1.7-5.5c0-5.5-4.5-10-10-10S2,6.5,2,12c0,2,0.6,3.9,1.7,5.5C4.6,16,6.2,15,8,15
		z M12,5c2.2,0,4,1.8,4,4s-1.8,4-4,4s-4-1.8-4-4S9.8,5,12,5z"/>
	<path d="M4,18c-0.1-0.1-0.2-0.3-0.3-0.4C3.8,17.7,3.9,17.8,4,18z"/>
	<path d="M15.3,21.4c-0.1,0-0.2,0.1-0.4,0.1C15.1,21.5,15.2,21.5,15.3,21.4z"/>
	<path d="M14.9,21.6c-0.2,0.1-0.5,0.1-0.7,0.2C14.5,21.7,14.7,21.6,14.9,21.6z"/>
	<path d="M10.8,21.9c-0.3,0-0.5-0.1-0.8-0.1C10.3,21.9,10.6,21.9,10.8,21.9z"/>
	<path d="M14,21.8c-0.6,0.1-1.3,0.2-2,0.2C12.7,22,13.4,21.9,14,21.8z"/>
	<path d="M12,22c-0.3,0-0.6,0-1,0C11.3,22,11.6,22,12,22z"/>
	<path d="M16.8,20.8c-0.2,0.1-0.4,0.2-0.6,0.3C16.3,21,16.6,20.9,16.8,20.8z"/>
	<path d="M15.9,21.2c-0.2,0.1-0.4,0.1-0.6,0.2C15.5,21.4,15.7,21.3,15.9,21.2z"/>
	<path d="M20.3,17.5C20.3,17.5,20.3,17.5,20.3,17.5C20.3,17.5,20.3,17.5,20.3,17.5C20.3,17.5,20.3,17.5,20.3,17.5z"/>
	<path d="M4.3,18.4C4.2,18.2,4.1,18.1,4,18C4.1,18.1,4.2,18.2,4.3,18.4z"/>
	<path d="M3.7,17.5C3.7,17.5,3.7,17.5,3.7,17.5C3.7,17.5,3.7,17.5,3.7,17.5C3.7,17.5,3.7,17.5,3.7,17.5z"/>
	<path d="M9.8,21.7c-0.2-0.1-0.4-0.1-0.7-0.2C9.3,21.6,9.5,21.7,9.8,21.7z"/>
	<path d="M4.5,18.6c0.3,0.3,0.6,0.7,1,1C5.1,19.2,4.8,18.9,4.5,18.6z"/>
	<path d="M8.7,21.4c-0.2-0.1-0.4-0.1-0.6-0.2C8.4,21.3,8.5,21.4,8.7,21.4z"/>
	<path d="M16.9,20.7c1.2-0.7,2.2-1.6,3.1-2.7C19.2,19.1,18.1,20,16.9,20.7z"/>
	<path d="M6.1,20c-0.1-0.1-0.3-0.2-0.4-0.3C5.8,19.8,5.9,19.9,6.1,20z"/>
	<path d="M7.8,21c-0.2-0.1-0.3-0.1-0.5-0.2C7.4,20.9,7.6,21,7.8,21z"/>
	<path d="M6.5,20.3c0.1,0.1,0.2,0.1,0.3,0.2C6.7,20.5,6.6,20.4,6.5,20.3C6.5,20.3,6.5,20.3,6.5,20.3z"/>
</g>
</svg>
