<?xml version="1.0" encoding="utf-8"?>
<!-- Generator: Adobe Illustrator 23.0.1, SVG Export Plug-In . SVG Version: 6.00 Build 0)  -->
<svg version="1.1" id="Layer_1" xmlns="http://www.w3.org/2000/svg" xmlns:xlink="http://www.w3.org/1999/xlink" x="0px" y="0px"
	 viewBox="0 0 24 24" style="enable-background:new 0 0 24 24;" xml:space="preserve">
<path d="M12,2C6.5,2,2,6.5,2,12s4.5,10,10,10s10-4.5,10-10S17.5,2,12,2z M13.7,15.3L13.7,15.3c0.3,0.4,0.2,1.1-0.2,1.4
	c-0.4,0.3-0.8,0.3-1.2,0l-4-4c-0.4-0.4-0.4-1,0-1.4l4-4c0.4-0.3,1.1-0.2,1.4,0.2c0.3,0.4,0.3,0.8,0,1.2L10.4,12L13.7,15.3z"/>
</svg>
