<?xml version="1.0" encoding="utf-8"?>
<!-- Generator: Adobe Illustrator 23.0.1, SVG Export Plug-In . SVG Version: 6.00 Build 0)  -->
<svg version="1.1" id="Layer_1" xmlns="http://www.w3.org/2000/svg" xmlns:xlink="http://www.w3.org/1999/xlink" x="0px" y="0px"
	 viewBox="0 0 24 24" style="enable-background:new 0 0 24 24;" xml:space="preserve">
<path d="M12,2C6.5,2,2,6.5,2,12s4.5,10,10,10s10-4.5,10-10S17.5,2,12,2z M15.7,12.7l-4,4c-0.4,0.3-1.1,0.2-1.4-0.2
	c-0.3-0.4-0.3-0.8,0-1.2l3.3-3.3l-3.3-3.3h0c-0.3-0.4-0.2-1.1,0.2-1.4c0.4-0.3,0.8-0.3,1.2,0l4,4C16.1,11.7,16.1,12.3,15.7,12.7z"/>
</svg>
