<?xml version="1.0" encoding="utf-8"?>
<!-- Generator: Adobe Illustrator 23.0.1, SVG Export Plug-In . SVG Version: 6.00 Build 0)  -->
<svg xmlns="http://www.w3.org/2000/svg" viewBox="0 0 24 24" class="icon-arrow-thick-down-circle">
<path class="primary" d="M12,2C6.5,2,2,6.5,2,12s4.5,10,10,10s10-4.5,10-10S17.5,2,12,2z M16.7,13.7l-4,4c-0.4,0.4-1,0.4-1.4,0l-4-4
	c-0.4-0.4-0.4-1,0-1.4C7.5,12.1,7.7,12,8,12h2V7c0-0.6,0.4-1,1-1h2c0.6,0,1,0.4,1,1v5h2c0.6,0,1,0.5,1,1
	C17,13.3,16.9,13.5,16.7,13.7z"/>
</svg>
