<?xml version="1.0" encoding="utf-8"?>
<!-- Generator: Adobe Illustrator 23.0.1, SVG Export Plug-In . SVG Version: 6.00 Build 0)  -->
<svg version="1.1" id="Layer_1" xmlns="http://www.w3.org/2000/svg" xmlns:xlink="http://www.w3.org/1999/xlink" x="0px" y="0px"
	 viewBox="0 0 24 24" style="enable-background:new 0 0 24 24;" xml:space="preserve">
<path d="M12,2C6.5,2,2,6.5,2,12s4.5,10,10,10s10-4.5,10-10S17.5,2,12,2z M17,13h-4v4c0,0.6-0.4,1-1,1s-1-0.4-1-1v-4H7
	c-0.6,0-1-0.4-1-1s0.4-1,1-1h4V7c0-0.6,0.4-1,1-1s1,0.4,1,1v4h4c0.6,0,1,0.4,1,1S17.6,13,17,13z"/>
</svg>
