<?xml version="1.0" encoding="utf-8"?>
<!-- Generator: Adobe Illustrator 23.0.1, SVG Export Plug-In . SVG Version: 6.00 Build 0)  -->
<svg version="1.1" id="Layer_1" xmlns="http://www.w3.org/2000/svg" xmlns:xlink="http://www.w3.org/1999/xlink" x="0px" y="0px"
	 viewBox="0 0 24 24" style="enable-background:new 0 0 24 24;" xml:space="preserve">
<path d="M12,2C6.5,2,2,6.5,2,12s4.5,10,10,10s10-4.5,10-10S17.5,2,12,2z M17.7,12.7l-4,4c-0.4,0.4-1,0.4-1.4,0
	C12.1,16.5,12,16.3,12,16v-2H7c-0.6,0-1-0.4-1-1v-2c0-0.6,0.4-1,1-1h5V8c0-0.6,0.5-1,1-1c0.3,0,0.5,0.1,0.7,0.3l4,4
	C18.1,11.7,18.1,12.3,17.7,12.7z"/>
</svg>
