<?xml version="1.0" encoding="utf-8"?>
<!-- Generator: Adobe Illustrator 23.0.1, SVG Export Plug-In . SVG Version: 6.00 Build 0)  -->
<svg version="1.1" id="Layer_1" xmlns="http://www.w3.org/2000/svg" xmlns:xlink="http://www.w3.org/1999/xlink" x="0px" y="0px"
	 viewBox="0 0 24 24" style="enable-background:new 0 0 24 24;" xml:space="preserve">
<path d="M12,2C6.5,2,2,6.5,2,12s4.5,10,10,10s10-4.5,10-10S17.5,2,12,2z M16.6,11.7c-0.4,0.3-0.9,0.3-1.3,0L13,9.4v0V17
	c0,0.6-0.4,1-1,1s-1-0.4-1-1V9.4l-2.3,2.3c-0.4,0.4-1,0.5-1.4,0.1c-0.4-0.4-0.5-1-0.1-1.4c0,0,0.1-0.1,0.1-0.1l4-4
	c0.4-0.4,1-0.4,1.4,0l4,4C17.1,10.7,17,11.3,16.6,11.7z"/>
</svg>
